<?xml version="1.0" encoding="utf-8"?>
<!-- Generator: Adobe Illustrator 25.4.1, SVG Export Plug-In . SVG Version: 6.00 Build 0)  -->
<svg version="1.1" xmlns="http://www.w3.org/2000/svg" xmlns:xlink="http://www.w3.org/1999/xlink" x="0px" y="0px"
	 viewBox="0 0 1000 1000" style="enable-background:new 0 0 1000 1000;" xml:space="preserve">
<style type="text/css">
	.st0{fill:none;stroke:#FFFFFF;stroke-width:10;stroke-miterlimit:10;}
	.st1{fill:#FFFFFF;stroke:#FFFFFF;stroke-width:10;stroke-miterlimit:10;}
	.st2{fill:#FFFFFF;stroke:#FFFFFF;stroke-miterlimit:10;}
	.st3{display:none;}
	.st4{display:inline;fill:#FFFFFF;stroke:#FFFFFF;stroke-width:13;stroke-miterlimit:10;}
</style>
<g id="Layer_1">
	<circle class="st0" cx="500" cy="500" r="200"/>
	<circle class="st0" cx="500" cy="500" r="175"/>
</g>
<g id="Layer_2">
	<g>
		<g>
			<path class="st1" d="M526.88,715.85c-8.81,1.11-17.78,1.68-26.88,1.68c-9.11,0-18.08-0.57-26.88-1.68"/>
			<polyline class="st1" points="526.88,715.85 500,849.15 473.12,715.85 			"/>
			<path class="st2" d="M526.88,711.35c-2.49,0-4.5,2.01-4.5,4.5s2.01,4.5,4.5,4.5s4.5-2.01,4.5-4.5S529.37,711.35,526.88,711.35"/>
			<path class="st2" d="M473.12,711.35c-2.49,0-4.5,2.01-4.5,4.5s2.01,4.5,4.5,4.5s4.5-2.01,4.5-4.5S475.6,711.35,473.12,711.35"/>
		</g>
		<g>
			<path class="st1" d="M715.85,473.12c1.11,8.81,1.68,17.78,1.68,26.88c0,9.11-0.57,18.08-1.68,26.88"/>
			<polyline class="st1" points="715.85,473.12 849.15,500 715.85,526.88 			"/>
			<path class="st2" d="M711.35,473.12c0,2.49,2.01,4.5,4.5,4.5s4.5-2.01,4.5-4.5s-2.01-4.5-4.5-4.5
				C713.37,468.62,711.35,470.63,711.35,473.12"/>
			<path class="st2" d="M711.35,526.88c0,2.49,2.01,4.5,4.5,4.5s4.5-2.01,4.5-4.5s-2.01-4.5-4.5-4.5S711.35,524.4,711.35,526.88"/>
		</g>
		<g>
			<path class="st1" d="M526.88,284.15c-8.81-1.11-17.78-1.68-26.88-1.68c-9.11,0-18.08,0.57-26.88,1.68"/>
			<polyline class="st1" points="526.88,284.15 500,150.85 473.12,284.15 			"/>
			<path class="st2" d="M526.88,288.65c-2.49,0-4.5-2.01-4.5-4.5c0-2.49,2.01-4.5,4.5-4.5s4.5,2.01,4.5,4.5
				C531.38,286.63,529.37,288.65,526.88,288.65"/>
			<path class="st2" d="M473.12,288.65c-2.49,0-4.5-2.01-4.5-4.5c0-2.49,2.01-4.5,4.5-4.5s4.5,2.01,4.5,4.5
				C477.62,286.63,475.6,288.65,473.12,288.65"/>
		</g>
		<g>
			<path class="st1" d="M284.15,526.88c-1.11-8.81-1.68-17.78-1.68-26.88c0-9.11,0.57-18.08,1.68-26.88"/>
			<polyline class="st1" points="284.15,526.88 150.85,500 284.15,473.12 			"/>
			<path class="st2" d="M288.65,526.88c0-2.49-2.01-4.5-4.5-4.5c-2.49,0-4.5,2.01-4.5,4.5s2.01,4.5,4.5,4.5
				C286.63,531.38,288.65,529.37,288.65,526.88"/>
			<path class="st2" d="M288.65,473.12c0-2.49-2.01-4.5-4.5-4.5s-4.5,2.01-4.5,4.5s2.01,4.5,4.5,4.5
				C286.63,477.62,288.65,475.6,288.65,473.12"/>
		</g>
	</g>
	<path class="st0" d="M666.53,634.46c-9.51,11.8-20.27,22.56-32.07,32.07"/>
	<polyline class="st0" points="666.53,634.46 730,730 634.46,666.53 	"/>
	<circle class="st2" cx="634.46" cy="666.53" r="4.46"/>
	<circle class="st2" cx="666.53" cy="634.46" r="4.46"/>
	<path class="st0" d="M333.47,634.46c9.51,11.8,20.27,22.56,32.07,32.07"/>
	<polyline class="st0" points="333.47,634.46 270,730 365.54,666.53 	"/>
	<circle class="st2" cx="365.54" cy="666.53" r="4.46"/>
	<circle class="st2" cx="333.47" cy="634.46" r="4.46"/>
	<path class="st0" d="M333.47,365.54c9.51-11.8,20.27-22.56,32.07-32.07"/>
	<polyline class="st0" points="333.47,365.54 270,270 365.54,333.47 	"/>
	<circle class="st2" cx="365.54" cy="333.47" r="4.46"/>
	<circle class="st2" cx="333.47" cy="365.54" r="4.46"/>
	<path class="st0" d="M666.53,365.54c-9.51-11.8-20.27-22.56-32.07-32.07"/>
	<polyline class="st0" points="666.53,365.54 730,270 634.46,333.47 	"/>
	<circle class="st2" cx="634.46" cy="333.47" r="4.46"/>
	<circle class="st2" cx="666.53" cy="365.54" r="4.46"/>
	<g class="st3">
		<polygon class="st4" points="787.36,787.36 451.49,557.55 557.55,451.48 		"/>
		<polygon class="st4" points="212.64,212.64 442.45,548.52 548.52,442.45 		"/>
	</g>
</g>
</svg>
